<svg width="24" height="23" viewBox="0 0 24 23" fill="none" xmlns="http://www.w3.org/2000/svg">
<path d="M3.6084 18.6282H7.13657L17.5423 8.22244L14.0141 4.69427L3.6084 15.1V18.6282ZM5.49009 15.8809L14.0141 7.35686L14.8797 8.22244L6.35567 16.7465H5.49009V15.8809ZM18.0692 1.96582C17.9821 1.8786 17.8788 1.8094 17.7649 1.76219C17.6511 1.71498 17.5291 1.69067 17.4059 1.69067C17.2827 1.69067 17.1607 1.71498 17.0468 1.76219C16.933 1.8094 16.8296 1.8786 16.7426 1.96582L15.0208 3.68756L18.549 7.21573L20.2708 5.49399C20.358 5.40695 20.4272 5.30356 20.4744 5.18974C20.5216 5.07592 20.5459 4.95391 20.5459 4.83069C20.5459 4.70747 20.5216 4.58546 20.4744 4.47164C20.4272 4.35783 20.358 4.25444 20.2708 4.1674L18.0692 1.96582Z" fill="black"/>
</svg>
